# Blender v2.79 (sub 0) OBJ File: ''
# www.blender.org
mtllib fennekin.mtl
o FOKKO_fourleg
v -0.085066 0.065133 0.056693
v 0.000000 0.072428 -0.000659
v -0.037256 -0.000000 0.115354
v 0.037256 -0.000000 0.115354
v 0.085066 0.065133 0.056693
v 0.096050 0.073619 -0.028544
v -0.081488 0.121628 0.104427
v -0.097747 0.000000 -0.119591
v -0.096050 0.073619 -0.028544
v 0.097746 0.000000 -0.119591
v -0.087378 0.181872 -0.079533
v 0.000000 0.181872 -0.131395
v 0.087378 0.181872 -0.079533
v 0.053433 0.181872 0.096543
v 0.000000 0.195750 0.054344
v -0.053433 0.181872 0.096543
v 0.000000 0.238377 0.115065
v 0.000000 0.181872 0.150289
v 0.270348 0.438388 0.024930
v 0.136631 0.635742 0.125774
v 0.092935 0.477621 0.062610
v 0.031844 0.513605 0.174954
v 0.138507 0.300729 0.056085
v 0.000000 0.453568 -0.005527
v -0.031844 0.513605 0.174954
v 0.000000 0.512480 0.073335
v 0.142543 0.469042 0.103043
v 0.000000 0.495094 0.239536
v 0.141860 0.420928 0.215181
v 0.056484 0.347208 -0.030600
v 0.114387 0.244947 0.046400
v 0.000000 0.253442 -0.003418
v -0.092935 0.477621 0.062610
v -0.136631 0.635742 0.125775
v -0.310115 0.716011 0.019223
v -0.165758 0.326929 0.122855
v -0.270348 0.438388 0.024930
v 0.092833 0.209212 0.154670
v 0.000000 0.204646 0.068927
v 0.055085 0.217846 0.264194
v -0.056484 0.347208 -0.030600
v -0.074958 0.492384 0.167085
v -0.142543 0.469042 0.103043
v -0.114387 0.244947 0.046400
v 0.000000 0.195873 0.181846
v -0.055085 0.217846 0.264194
v -0.138507 0.300729 0.056085
v -0.092833 0.209212 0.154670
v -0.132617 0.277610 0.248714
v -0.159491 0.228571 0.130880
v -0.141860 0.420928 0.215181
v 0.220096 0.534179 0.140739
v 0.210100 0.536258 0.151327
v 0.223386 0.591064 0.124364
v 0.109551 0.570625 0.143359
v 0.137894 0.532168 0.154983
v 0.360386 0.604791 0.086638
v 0.235867 0.573591 0.116685
v 0.143824 0.516587 0.149970
v 0.133323 0.493001 0.160114
v 0.242761 0.467360 0.143682
v 0.135901 0.585837 0.119967
v 0.151761 0.568770 0.115492
v 0.243935 0.513118 0.089475
v 0.130560 0.453612 0.155537
v 0.077395 0.492384 0.165419
v 0.157822 0.434050 0.079385
v 0.271273 0.421657 0.111166
v 0.159012 0.353195 0.120194
v -0.230994 0.573591 0.116685
v -0.215224 0.534179 0.140739
v -0.133021 0.532168 0.154983
v -0.138952 0.516587 0.149970
v -0.205227 0.536258 0.151327
v -0.072522 0.492384 0.165419
v -0.104679 0.570625 0.143359
v -0.355513 0.604791 0.086638
v -0.218514 0.591064 0.124364
v -0.131028 0.585837 0.119967
v -0.146888 0.568770 0.115492
v -0.128450 0.493001 0.160114
v -0.237889 0.467360 0.143682
v -0.239062 0.513118 0.089475
v -0.152950 0.434050 0.079385
v -0.266401 0.421657 0.111166
v -0.125687 0.453612 0.155537
v -0.154140 0.353195 0.120194
v -0.112060 0.231674 -0.172825
v 0.000000 0.189812 -0.141280
v 0.112060 0.231674 -0.172825
v 0.056030 0.173270 -0.250330
v -0.056030 0.173270 -0.250330
v 0.056030 0.290079 -0.095320
v 0.123280 0.297417 -0.222366
v -0.056030 0.290079 -0.095320
v -0.061640 0.361669 -0.137101
v -0.123280 0.297417 -0.222366
v 0.061640 0.233165 -0.307631
v -0.061640 0.233165 -0.307631
v 0.000000 0.422050 -0.316283
v 0.061640 0.361669 -0.137101
v 0.000000 0.326787 0.310170
v 0.000000 0.292859 0.388399
v 0.276668 0.299692 0.089867
v 0.159491 0.228571 0.130880
v 0.165758 0.326929 0.122855
v 0.169991 0.300090 0.194178
v 0.000000 0.427570 0.298601
v -0.169991 0.300090 0.194178
v -0.276668 0.299692 0.089867
v 0.095392 0.120526 -0.093584
v 0.127026 0.166102 -0.125246
v 0.088855 0.160893 -0.083175
v 0.095376 0.095740 -0.098968
v 0.126935 0.122662 -0.130653
v 0.094908 0.122067 -0.093686
v 0.095392 0.120526 -0.093584
v 0.088855 0.160893 -0.083175
v 0.127026 0.166102 -0.125246
v 0.095376 0.095740 -0.098968
v 0.094908 0.122067 -0.093686
v 0.126935 0.122662 -0.130653
v -0.095392 0.120526 -0.093584
v -0.088855 0.160893 -0.083175
v -0.127026 0.166102 -0.125246
v -0.095376 0.095740 -0.098968
v -0.094908 0.122067 -0.093686
v -0.126935 0.122662 -0.130653
v -0.095392 0.120526 -0.093584
v -0.127026 0.166102 -0.125246
v -0.088855 0.160893 -0.083175
v -0.095376 0.095740 -0.098968
v -0.126935 0.122662 -0.130653
v -0.094908 0.122067 -0.093686
v 0.000000 0.066228 0.146046
v 0.000000 0.121628 0.156126
v 0.000000 0.066543 -0.158546
v 0.000000 0.121628 -0.158546
v -0.096538 0.121628 -0.095384
v 0.081488 0.121628 0.104427
v 0.096538 0.121628 -0.095384
v 0.310115 0.716011 0.019223
v 0.074958 0.492384 0.167085
v -0.060867 0.282426 0.299619
v -0.086775 0.422812 0.272211
v 0.086775 0.422812 0.272211
v 0.060867 0.282426 0.299619
v 0.132617 0.277610 0.248714
vt 0.608418 0.634455
vt 0.713957 0.672467
vt 0.586612 0.668123
vt 0.608365 0.613782
vt 0.713655 0.636237
vt 0.606804 0.635740
vt 0.608418 0.634455
vt 0.586612 0.668123
vt 0.713957 0.672467
vt 0.608365 0.613782
vt 0.606804 0.635740
vt 0.713655 0.636237
vt 0.608418 0.634455
vt 0.586612 0.668123
vt 0.713957 0.672467
vt 0.608365 0.613782
vt 0.606804 0.635740
vt 0.713655 0.636237
vt 0.608418 0.634455
vt 0.713957 0.672467
vt 0.586612 0.668123
vt 0.608365 0.613782
vt 0.713655 0.636237
vt 0.606804 0.635740
vt 0.739384 0.926656
vt 0.699145 0.929843
vt 0.773339 0.928699
vt 0.634471 0.914129
vt 0.861202 0.914129
vt 0.591936 0.930107
vt 0.898795 0.930183
vt 0.634471 0.914129
vt 0.861202 0.914129
vt 0.699145 0.929843
vt 0.773339 0.928699
vt 0.645017 0.943473
vt 0.837842 0.943473
vt 0.645017 0.943473
vt 0.837842 0.943473
vt 0.822544 0.958007
vt 0.652624 0.958007
vt 0.693348 0.961355
vt 0.872594 0.958007
vt 0.822544 0.958007
vt 0.652624 0.958007
vt 0.647053 0.959681
vt 0.600757 0.958007
vt 0.897625 0.670289
vt 0.912034 0.757774
vt 0.910139 0.621248
vt 0.876648 0.743198
vt 0.877617 0.497247
vt 0.860315 0.715269
vt 0.899792 0.464499
vt 0.894062 0.713846
vt 0.928580 0.522597
vt 0.920253 0.640222
vt 0.884197 0.659565
vt 0.860315 0.715269
vt 0.862929 0.688742
vt 0.840835 0.692107
vt 0.903008 0.394771
vt 0.874952 0.374301
vt 0.897625 0.670289
vt 0.928580 0.522597
vt 0.848134 0.599409
vt 0.862929 0.688742
vt 0.831524 0.601776
vt 0.831524 0.601776
vt 0.867052 0.360765
vt 0.833316 0.442879
vt 0.853931 0.463699
vt 0.919553 0.405389
vt 0.876648 0.743198
vt 0.899792 0.464499
vt 0.912034 0.757774
vt 0.877617 0.497247
vt 0.910139 0.621248
vt 0.848134 0.599409
vt 0.830678 0.371558
vt 0.895527 0.355057
vt 0.858026 0.344092
vt 0.903008 0.394771
vt 0.884197 0.659565
vt 0.853931 0.463699
vt 0.815965 0.448898
vt 0.867052 0.360765
vt 0.830678 0.371558
vt 0.874952 0.374301
vt 0.833316 0.442879
vt 0.815965 0.448898
vt 0.685103 0.074091
vt 0.753209 0.074508
vt 0.766275 0.082671
vt 0.690017 0.070864
vt 0.696592 0.081673
vt 0.744927 0.074938
vt 0.755935 0.086290
vt 0.681316 0.065979
vt 0.661621 0.082057
vt 0.634979 0.065851
vt 0.869441 0.089134
vt 0.771987 0.060668
vt 0.683452 0.085208
vt 0.772960 0.070146
vt 0.645266 0.060730
vt 0.679027 0.057820
vt 0.795610 0.051201
vt 0.702600 0.037021
vt 0.685103 0.074091
vt 0.766275 0.082671
vt 0.753209 0.074508
vt 0.696592 0.081673
vt 0.690017 0.070864
vt 0.755935 0.086290
vt 0.744927 0.074938
vt 0.661621 0.082057
vt 0.681316 0.065979
vt 0.634979 0.065851
vt 0.869441 0.089134
vt 0.772960 0.070146
vt 0.683452 0.085208
vt 0.679027 0.057820
vt 0.771987 0.060668
vt 0.645266 0.060730
vt 0.795610 0.051201
vt 0.702600 0.037021
vt 0.742797 0.833882
vt 0.860252 0.849742
vt 0.860252 0.849742
vt 0.742797 0.849742
vt 0.742797 0.849742
vt 0.625343 0.849742
vt 0.625343 0.849742
vt 0.872012 0.874650
vt 0.872012 0.874650
vt 0.613583 0.874650
vt 0.742797 0.874650
vt 0.742797 0.874650
vt 0.613583 0.874650
vt 0.009890 0.837139
vt 0.543707 0.760089
vt 0.543708 0.914189
vt 0.009890 0.683039
vt 0.009890 0.991239
vt 0.009890 0.683039
vt 0.543707 0.760089
vt 0.543708 0.914189
vt 0.009890 0.991239
vt 0.000000 0.168817
vt -0.218256 0.006258
vt 0.218256 0.006258
vt -0.346535 0.100467
vt 0.346536 0.100467
vt 0.000000 0.260360
vt -0.346535 0.253004
vt 0.346536 0.253004
vt 0.097287 0.295272
vt 0.683167 0.250008
vt 0.675209 0.340206
vt 0.630670 0.339406
vt 0.651834 0.372955
vt 0.013334 0.538280
vt 0.420896 0.553522
vt 0.013334 0.430230
vt 0.013334 0.646605
vt 0.420896 0.553522
vt 0.097287 0.295272
vt 0.683167 0.250008
vt 0.630670 0.339406
vt 0.675209 0.340206
vt 0.651834 0.372955
vt 0.592695 0.943473
vt 0.898795 0.943473
vt 0.540053 0.964938
vt 0.836287 0.771986
vt 0.372785 0.778802
vt 0.018603 0.846407
vt 0.372785 0.778802
vt 0.540053 0.964938
vt 0.836287 0.771986
vt 0.966418 0.964938
vt 0.966418 0.964938
vn 0.7428 -0.0518 0.6675
vn 0.7515 -0.1169 0.6492
vn -0.7428 0.0518 -0.6675
vn -0.7515 0.1169 -0.6492
vn -0.7428 -0.0518 0.6675
vn -0.7515 -0.1169 0.6492
vn 0.7428 0.0518 -0.6675
vn 0.7515 0.1169 -0.6492
vn 0.0000 -0.9997 -0.0237
vn -0.8230 -0.5678 -0.0134
vn -0.8483 -0.4683 0.2472
vn -0.0633 -0.9355 0.3475
vn -0.4759 -0.8040 -0.3564
vn 0.0000 -0.3894 0.9210
vn 0.0000 -0.4337 -0.9010
vn 0.0633 -0.9355 0.3475
vn 0.4759 -0.8040 -0.3564
vn 0.8230 -0.5678 -0.0134
vn 0.8483 -0.4683 0.2472
vn -0.8521 0.0953 0.5146
vn -0.8721 0.1752 -0.4568
vn 0.8521 0.0953 0.5146
vn 0.8721 0.1752 -0.4568
vn -0.6763 0.6726 -0.3005
vn -0.7179 0.6368 0.2812
vn 0.0000 0.9841 -0.1775
vn 0.0000 0.7363 -0.6766
vn 0.6763 0.6726 -0.3005
vn 0.7179 0.6368 0.2812
vn 0.0000 0.9743 0.2253
vn 0.0000 0.3655 0.9308
vn 0.0176 0.4528 -0.8914
vn 0.6020 0.7582 -0.2505
vn 0.8076 -0.4512 -0.3798
vn -0.2908 0.8522 0.4348
vn 0.7673 0.6258 -0.1398
vn 0.1097 0.9498 0.2928
vn 0.7124 0.0105 -0.7016
vn 0.0000 0.9443 -0.3291
vn 0.3975 0.0140 -0.9175
vn 0.0000 0.5633 -0.8262
vn 0.7212 0.1384 0.6787
vn -0.1097 0.9498 0.2928
vn 0.5257 0.4954 0.6915
vn 0.0000 0.8311 0.5561
vn 0.5270 -0.6106 -0.5911
vn 0.5126 -0.8584 -0.0176
vn -0.0176 0.4528 -0.8914
vn -0.3975 0.0140 -0.9175
vn 0.8036 0.4205 0.4212
vn -0.5257 0.4954 0.6915
vn 0.5010 0.4246 0.7541
vn -0.5010 0.4246 0.7541
vn 0.3088 -0.9494 0.0569
vn 0.7098 -0.3305 0.6220
vn 0.8866 -0.0420 0.4606
vn 0.0000 -0.6038 -0.7971
vn 0.2908 0.8522 0.4349
vn -0.7124 0.0105 -0.7016
vn -0.6020 0.7582 -0.2505
vn -0.7673 0.6258 -0.1398
vn -0.8076 -0.4512 -0.3798
vn -0.8036 0.4205 0.4212
vn 0.3522 -0.8197 0.4517
vn 0.0000 -0.9405 -0.3396
vn 0.0000 -0.9973 0.0732
vn -0.5270 -0.6106 -0.5911
vn -0.7212 0.1384 0.6787
vn -0.8866 -0.0420 0.4606
vn 0.6341 -0.0740 0.7697
vn -0.3088 -0.9494 0.0569
vn -0.3522 -0.8197 0.4517
vn -0.5126 -0.8584 -0.0176
vn -0.7098 -0.3305 0.6220
vn -0.6341 -0.0740 0.7697
vn 0.1020 0.2606 0.9600
vn 0.1710 0.2636 0.9493
vn -0.0751 0.9972 0.0022
vn 0.8823 -0.3974 0.2521
vn 0.1256 0.2853 -0.9501
vn 0.9585 0.2817 -0.0445
vn 0.9513 0.2981 -0.0779
vn 0.1442 0.0119 0.9895
vn 0.0182 0.4567 0.8894
vn 0.0580 0.0877 0.9944
vn 0.7602 0.6210 -0.1909
vn 0.3348 -0.1357 0.9324
vn -0.0646 0.9923 0.1058
vn 0.0067 0.0873 -0.9961
vn 0.1295 -0.1718 -0.9766
vn 0.1194 -0.1862 0.9752
vn 0.7523 -0.6514 -0.0985
vn 0.4429 -0.8526 0.2773
vn -0.1020 0.2606 0.9600
vn 0.0751 0.9972 0.0022
vn -0.1710 0.2636 0.9493
vn -0.1256 0.2853 -0.9501
vn -0.8823 -0.3974 0.2521
vn -0.9513 0.2981 -0.0779
vn -0.9585 0.2817 -0.0445
vn -0.0182 0.4567 0.8894
vn -0.1442 0.0119 0.9895
vn -0.0580 0.0877 0.9944
vn -0.7602 0.6210 -0.1909
vn -0.0067 0.0873 -0.9961
vn 0.0646 0.9923 0.1058
vn -0.1194 -0.1862 0.9752
vn -0.3348 -0.1357 0.9324
vn -0.1295 -0.1718 -0.9766
vn -0.7523 -0.6514 -0.0985
vn -0.4429 -0.8526 0.2773
vn 0.0000 -0.7986 0.6018
vn -0.4243 -0.8647 -0.2686
vn 0.4243 -0.8647 -0.2686
vn -0.8487 -0.4224 0.3183
vn 0.8487 -0.4224 0.3183
vn -0.4243 0.0199 0.9053
vn 0.4243 0.0199 0.9053
vn 0.4858 -0.3176 -0.8143
vn -0.4858 -0.3176 -0.8143
vn 0.4858 0.6952 0.5298
vn 0.9716 0.1887 -0.1422
vn -0.9716 0.1887 -0.1422
vn -0.4858 0.6952 0.5298
vn 0.0000 0.7986 -0.6018
vn 0.0000 0.1408 0.9900
vn 0.0000 0.4723 0.8814
vn 0.9554 0.0998 -0.2778
vn 0.0000 0.3933 0.9194
vn -0.9554 0.0998 -0.2778
vn 0.0000 -0.0398 0.9992
vn 0.0000 0.1964 -0.9805
usemtl assets_textures_Pii_FOKKO_body
s off
f 111/1/1 112/2/1 113/3/1
f 114/4/2 115/5/2 116/6/2
f 117/7/3 118/8/3 119/9/3
f 120/10/4 121/11/4 122/12/4
f 123/13/5 124/14/5 125/15/5
f 126/16/6 127/17/6 128/18/6
f 129/19/7 130/20/7 131/21/7
f 132/22/8 133/23/8 134/24/8
s 1
f 2/25/9 1/26/10 9/27/11
f 2/25/9 3/28/12 1/26/10
f 2/25/9 9/27/11 8/29/13
f 2/25/9 135/30/14 3/28/12
f 2/25/9 8/29/13 137/31/15
f 2/25/9 4/32/16 135/30/14
f 2/25/9 137/31/15 10/33/17
f 2/25/9 5/34/18 4/32/16
f 2/25/9 10/33/17 6/35/19
f 2/25/9 6/35/19 5/34/18
f 3/28/12 135/30/14 7/36/20
f 8/29/13 9/27/11 139/37/21
f 8/29/13 139/37/21 137/31/15
f 4/32/16 5/34/18 140/38/22
f 4/32/16 140/38/22 135/30/14
f 10/33/17 141/39/23 6/35/19
f 10/33/17 137/31/15 141/39/23
f 11/40/24 16/41/25 15/42/26
f 11/40/24 15/42/26 12/43/27
f 11/40/24 12/43/27 139/37/21
f 13/44/28 141/39/23 12/43/27
f 13/44/28 15/42/26 14/45/29
f 13/44/28 12/43/27 15/42/26
f 16/41/25 17/46/30 15/42/26
f 17/46/30 14/45/29 15/42/26
f 16/41/25 18/47/31 17/46/30
f 17/46/30 18/47/31 14/45/29
f 21/48/32 142/49/33 19/50/34
f 21/48/32 20/51/35 142/49/33
f 21/48/32 19/50/34 106/52/36
f 21/48/32 22/53/37 20/51/35
f 21/48/32 106/52/36 23/54/38
f 21/48/32 26/55/39 22/53/37
f 21/48/32 23/54/38 30/56/40
f 21/48/32 24/57/41 26/55/39
f 21/48/32 30/56/40 24/57/41
f 19/50/34 27/58/42 106/52/36
f 22/53/37 26/55/39 25/59/43
f 22/53/37 143/60/44 20/51/35
f 22/53/37 25/59/43 28/61/45
f 22/53/37 28/61/45 143/60/44
f 23/54/38 31/62/46 30/56/40
f 23/54/38 105/63/47 31/62/46
f 26/55/39 33/64/48 25/59/43
f 24/57/41 33/64/48 26/55/39
f 24/57/41 41/65/49 33/64/48
f 24/57/41 30/56/40 41/65/49
f 27/58/42 29/66/50 106/52/36
f 27/58/42 143/60/44 29/66/50
f 28/61/45 25/59/43 42/67/51
f 28/61/45 146/68/52 143/60/44
f 143/60/44 146/68/52 29/66/50
f 28/61/45 42/67/51 145/69/53
f 105/63/47 38/70/54 31/62/46
f 105/63/47 148/71/55 38/70/54
f 105/63/47 107/72/56 148/71/55
f 107/72/56 106/52/36 29/66/50
f 107/72/56 29/66/50 148/71/55
f 30/56/40 32/73/57 41/65/49
f 30/56/40 31/62/46 32/73/57
f 33/64/48 34/74/58 25/59/43
f 34/74/58 42/67/51 25/59/43
f 33/64/48 41/65/49 47/75/59
f 33/64/48 35/76/60 34/74/58
f 34/74/58 35/76/60 42/67/51
f 33/64/48 47/75/59 36/77/61
f 33/64/48 36/77/61 37/78/62
f 33/64/48 37/78/62 35/76/60
f 145/69/53 42/67/51 51/79/63
f 38/70/54 148/71/55 40/80/64
f 31/62/46 39/81/65 32/73/57
f 38/70/54 39/81/65 31/62/46
f 38/70/54 40/80/64 45/82/66
f 38/70/54 45/82/66 39/81/65
f 41/65/49 44/83/67 47/75/59
f 32/73/57 39/81/65 44/83/67
f 41/65/49 32/73/57 44/83/67
f 43/84/68 51/79/63 42/67/51
f 43/84/68 42/67/51 35/76/60
f 36/77/61 43/84/68 37/78/62
f 36/77/61 51/79/63 43/84/68
f 43/84/68 35/76/60 37/78/62
f 36/77/61 109/85/69 51/79/63
f 148/71/55 147/86/70 40/80/64
f 45/82/66 48/87/71 39/81/65
f 39/81/65 48/87/71 44/83/67
f 45/82/66 46/88/72 48/87/71
f 45/82/66 40/80/64 46/88/72
f 47/75/59 44/83/67 50/89/73
f 44/83/67 48/87/71 50/89/73
f 48/87/71 46/88/72 49/90/74
f 48/87/71 49/90/74 50/89/73
f 109/85/69 50/89/73 49/90/74
f 109/85/69 49/90/74 51/79/63
f 46/88/72 144/91/75 49/90/74
f 56/92/76 52/93/77 58/94/78
f 56/92/76 59/95/79 52/93/77
f 56/92/76 58/94/78 63/96/80
f 56/92/76 53/97/81 59/95/79
f 56/92/76 63/96/80 54/98/82
f 56/92/76 60/99/83 53/97/81
f 53/97/81 60/99/83 59/95/79
f 56/92/76 54/98/82 55/100/84
f 56/92/76 55/100/84 66/101/85
f 56/92/76 66/101/85 60/99/83
f 52/93/77 57/102/86 58/94/78
f 52/93/77 59/95/79 61/103/87
f 59/95/79 60/99/83 61/103/87
f 52/93/77 61/103/87 57/102/86
f 54/98/82 62/104/88 55/100/84
f 63/96/80 62/104/88 54/98/82
f 58/94/78 57/102/86 64/105/89
f 63/96/80 58/94/78 64/105/89
f 63/96/80 64/105/89 67/106/90
f 60/99/83 65/107/91 61/103/87
f 66/101/85 65/107/91 60/99/83
f 68/108/92 64/105/89 57/102/86
f 68/108/92 57/102/86 61/103/87
f 67/106/90 64/105/89 68/108/92
f 67/106/90 68/108/92 69/109/93
f 69/109/93 61/103/87 65/107/91
f 68/108/92 61/103/87 69/109/93
f 72/110/94 70/111/95 71/112/96
f 72/110/94 80/113/97 70/111/95
f 72/110/94 71/112/96 73/114/98
f 72/110/94 78/115/99 80/113/97
f 72/110/94 73/114/98 74/116/100
f 72/110/94 76/117/101 78/115/99
f 74/116/100 73/114/98 81/118/102
f 72/110/94 74/116/100 81/118/102
f 72/110/94 81/118/102 75/119/103
f 72/110/94 75/119/103 76/117/101
f 70/111/95 77/120/104 71/112/96
f 70/111/95 80/113/97 83/121/105
f 70/111/95 83/121/105 77/120/104
f 78/115/99 76/117/101 79/122/106
f 78/115/99 79/122/106 80/113/97
f 75/119/103 81/118/102 86/123/107
f 71/112/96 77/120/104 82/124/108
f 73/114/98 71/112/96 82/124/108
f 81/118/102 82/124/108 86/123/107
f 73/114/98 82/124/108 81/118/102
f 83/121/105 80/113/97 84/125/109
f 83/121/105 84/125/109 85/126/110
f 77/120/104 85/126/110 82/124/108
f 83/121/105 85/126/110 77/120/104
f 87/127/111 85/126/110 84/125/109
f 87/127/111 82/124/108 85/126/110
f 86/123/107 82/124/108 87/127/111
f 89/128/112 92/129/113 91/130/114
f 89/128/112 88/131/115 92/129/113
f 89/128/112 91/130/114 90/132/116
f 89/128/112 95/133/117 88/131/115
f 89/128/112 90/132/116 93/134/118
f 89/128/112 93/134/118 95/133/117
f 92/129/113 98/135/119 91/130/114
f 92/129/113 88/131/115 99/136/120
f 92/129/113 99/136/120 98/135/119
f 90/132/116 101/137/121 93/134/118
f 90/132/116 91/130/114 94/138/122
f 90/132/116 94/138/122 101/137/121
f 94/138/122 91/130/114 98/135/119
f 95/133/117 97/139/123 88/131/115
f 97/139/123 99/136/120 88/131/115
f 95/133/117 93/134/118 96/140/124
f 96/140/124 93/134/118 101/137/121
f 95/133/117 96/140/124 97/139/123
f 100/141/125 98/142/119 99/143/120
f 100/141/125 94/144/122 98/142/119
f 100/141/125 99/143/120 97/145/123
f 100/141/125 97/146/123 96/147/124
f 100/141/125 96/147/124 101/148/121
f 100/141/125 101/148/121 94/149/122
f 103/150/126 46/151/72 40/152/64
f 103/150/126 144/153/75 46/151/72
f 103/150/126 40/152/64 147/154/70
f 103/150/126 102/155/127 144/156/75
f 103/150/126 147/157/70 102/155/127
f 104/158/128 105/159/47 23/160/38
f 104/158/128 107/161/56 105/159/47
f 104/158/128 23/160/38 106/162/36
f 104/158/128 106/162/36 107/161/56
f 108/163/129 145/164/53 102/165/127
f 108/163/129 28/166/45 145/164/53
f 108/163/129 146/167/52 28/166/45
f 108/163/129 102/165/127 146/167/52
f 110/168/130 50/169/73 109/170/69
f 110/168/130 47/171/59 50/169/73
f 110/168/130 36/172/61 47/171/59
f 110/168/130 109/170/69 36/172/61
f 1/26/10 7/36/20 9/27/11
f 1/26/10 3/28/12 7/36/20
f 9/27/11 7/36/20 139/37/21
f 5/34/18 6/35/19 140/38/22
f 6/35/19 141/39/23 140/38/22
f 7/36/20 11/40/24 139/37/21
f 7/36/20 135/30/14 136/173/131
f 136/173/131 135/30/14 140/38/22
f 7/36/20 16/41/25 11/40/24
f 7/36/20 18/47/31 16/41/25
f 7/36/20 136/173/131 18/47/31
f 136/173/131 140/38/22 18/47/31
f 137/31/15 139/37/21 138/174/132
f 137/31/15 138/174/132 141/39/23
f 138/174/132 139/37/21 12/43/27
f 138/174/132 12/43/27 141/39/23
f 140/38/22 14/45/29 18/47/31
f 140/38/22 13/44/28 14/45/29
f 140/38/22 141/39/23 13/44/28
f 142/49/33 27/58/42 19/50/34
f 142/49/33 143/60/44 27/58/42
f 142/49/33 20/51/35 143/60/44
usemtl assets_textures_Pii_FOKKO_eye
f 145/175/53 49/176/74 144/177/75
f 145/175/53 144/177/75 102/178/127
f 102/178/127 147/179/70 146/180/52
f 148/181/55 146/180/52 147/179/70
f 146/180/52 148/181/55 29/182/50
f 145/175/53 51/183/63 49/176/74
