# Blender v2.78 (sub 0) OBJ File: ''
# www.blender.org
mtllib flat.mtl
o Cube
v 1.000000 -1.000000 -0.120000
v 1.000000 -1.000000 0.120000
v -1.000000 -1.000000 0.120000
v -1.000000 -1.000000 -0.120000
v 1.000000 1.000000 -0.120000
v 0.999999 1.000000 0.120000
v -1.000000 1.000000 0.120000
v -1.000000 1.000000 -0.120000
vt -0.0043 0.0027
vt -0.0004 0.0007
vt 1.0008 0.0037
vt 1.0047 0.0017
vt -0.0028 1.0028
vt 1.0048 1.0020
vt 1.0028 1.0020
vt -0.0028 1.0028
vn 0.0000 -1.0000 0.0000
vn 0.0000 1.0000 0.0000
vn 1.0000 0.0000 0.0000
vn -0.0000 -0.0000 1.0000
vn -1.0000 -0.0000 -0.0000
vn 0.0000 0.0000 -1.0000
usemtl Material
s off
f 1/1/1 2/2/1 3/3/1 4/4/1
f 5/5/2 8/6/2 7/7/2 6/8/2
f 1/1/3 5/5/3 6/8/3 2/2/3
f 2/2/4 6/8/4 7/7/4 3/3/4
f 3/3/5 7/7/5 8/6/5 4/4/5
f 5/5/6 1/1/6 4/4/6 8/6/6
