# Blender v2.79 (sub 0) OBJ File: 'Palme.blend'
# www.blender.org
mtllib palm.mtl
o Cube_Cube.001
v 0.749967 3.620603 -0.750943
v 0.441021 4.156170 -0.441997
v 0.441021 4.156170 -1.059890
v 1.058914 4.156170 -0.441997
v 1.058914 4.156170 -1.059890
v 0.749967 4.692263 -0.750943
v -0.950010 3.438445 0.009431
v -1.258957 3.974012 0.318377
v -1.258957 3.974012 -0.299516
v -0.641063 3.974012 0.318377
v -0.641063 3.974012 -0.299516
v -0.950010 4.504273 0.006869
v 0.604484 3.533629 0.780093
v 0.295537 4.069197 1.089040
v 0.295537 4.069197 0.471146
v 0.913431 4.069197 1.089040
v 0.913431 4.069197 0.471146
v 0.604484 4.605290 0.780093
v 0.448612 4.691862 -2.756342
v 0.873549 4.141259 -5.208527
v 1.389116 4.526505 -2.641424
v -0.511040 4.632016 -2.687447
v 0.537932 4.867006 -2.850838
v -0.008526 4.771256 -0.097433
v -0.016100 4.771256 -0.058145
v -2.769505 4.867006 -0.604603
v -2.606114 4.632016 0.444369
v -2.560092 4.526505 -1.455787
v -5.127194 4.141259 -0.940220
v -2.675009 4.691862 -0.515283
v -0.460281 4.691862 2.625892
v -0.885218 4.141259 5.078077
v -1.400785 4.526505 2.510975
v 0.499371 4.632016 2.556997
v -0.549601 4.867006 2.720388
v -0.003143 4.771256 -0.033017
v 0.021985 4.771256 -0.045974
v 2.775390 4.867006 0.500484
v 2.611999 4.632016 -0.548488
v 2.565977 4.526505 1.351667
v 5.133079 4.141259 0.836100
v 2.680894 4.691862 0.411164
v 0.003148 -4.004473 -0.071250
v -0.333294 1.091342 0.265191
v -0.333294 1.091342 -0.407691
v 0.339589 1.091342 0.265191
v 0.339589 1.091342 -0.407691
v 0.003148 4.782506 -0.071250
vt 0.000000 0.000000
vt 0.000000 0.000000
vt 0.000000 0.000000
vt 0.000000 0.000000
vt 0.000000 0.000000
vt 0.000000 0.000000
vt 0.000000 0.000000
vt 0.000000 0.000000
vt 0.000000 0.000000
vt 0.000000 0.000000
vt 0.000000 0.000000
vt 0.000000 0.000000
vt 0.000000 0.000000
vt 0.000000 0.000000
vt 0.000000 0.000000
vt 0.000000 0.000000
vt 0.000000 0.000000
vt 0.000000 0.000000
vt 0.000000 0.000000
vt 0.000000 0.000000
vt 0.000000 0.000000
vt 0.000000 0.000000
vt 0.000000 0.000000
vt 0.000000 0.000000
vt 0.000000 0.000000
vt 0.000000 0.000000
vt 0.000000 0.000000
vt 0.000000 0.000000
vt 0.000000 0.000000
vt 0.000000 0.000000
vt 0.000000 0.000000
vt 0.000000 0.000000
vt 0.000000 0.000000
vt 0.000000 0.000000
vt 0.000000 0.000000
vt 0.000000 0.000000
vt 0.000000 0.000000
vt 0.000000 0.000000
vt 0.000000 0.000000
vt 0.000000 0.000000
vt 0.000000 0.000000
vt 0.000000 0.000000
vt 0.000000 0.000000
vt 0.000000 0.000000
vt 0.000000 0.000000
vt 0.000000 0.000000
vt 0.000000 0.000000
vt 0.000000 0.000000
vn -0.9978 -0.0659 0.0000
vn 0.0000 -0.0659 -0.9978
vn 0.9978 -0.0659 0.0000
vn 0.0000 -0.0659 0.9978
vn 0.0000 0.0908 0.9959
vn 0.0000 0.0908 -0.9959
vn 0.9959 0.0908 0.0000
vn -0.9959 0.0908 0.0000
vn 0.4079 0.8873 -0.2151
vn -0.1731 -0.9849 -0.0004
vn -0.2200 0.9754 -0.0097
vn -0.1919 -0.9642 0.1832
vn 0.3479 0.9320 0.1015
vn 0.0771 -0.9699 0.2311
vn -0.2541 0.9136 -0.3174
vn 0.0651 -0.9970 0.0410
vn 0.0410 -0.9970 -0.0651
vn 0.2311 -0.9699 -0.0771
vn 0.1015 0.9320 -0.3479
vn -0.3174 0.9136 0.2541
vn -0.0097 0.9754 0.2200
vn 0.1832 -0.9642 0.1919
vn 0.1731 -0.9849 0.0004
vn -0.0004 -0.9849 0.1731
vn 0.1919 -0.9642 -0.1832
vn 0.2541 0.9136 0.3174
vn -0.4079 0.8873 0.2151
vn -0.3479 0.9320 -0.1015
vn 0.2200 0.9754 0.0097
vn -0.0651 -0.9970 -0.0410
vn -0.2151 0.8873 -0.4079
vn -0.0771 -0.9699 -0.2311
vn 0.0097 0.9754 -0.2200
vn -0.0410 -0.9970 0.0651
vn -0.1015 0.9320 0.3479
vn 0.3174 0.9136 -0.2541
vn -0.1832 -0.9642 -0.1919
vn 0.2151 0.8873 0.4079
vn 0.0004 -0.9849 -0.1731
vn -0.2311 -0.9699 0.0771
vn -0.8662 -0.4997 0.0000
vn 0.0000 -0.4997 -0.8662
vn 0.8662 -0.4997 0.0000
vn 0.0000 -0.4997 0.8662
vn -0.8664 0.4993 0.0000
vn 0.0000 0.4993 0.8664
vn 0.0000 0.4993 -0.8664
vn 0.8664 0.4993 0.0000
vn -0.8640 0.5034 0.0000
vn 0.0000 0.5065 0.8622
vn 0.0000 0.5003 -0.8659
vn 0.8640 0.5034 0.0000
usemtl Material.001
s off
f 43/1/1 44/2/1 45/3/1
f 43/1/2 45/3/2 47/4/2
f 43/1/3 47/4/3 46/5/3
f 43/1/4 46/5/4 44/2/4
f 44/2/5 46/5/5 48/6/5
f 47/4/6 45/3/6 48/6/6
f 46/5/7 47/4/7 48/6/7
f 45/3/8 44/2/8 48/6/8
usemtl Material.002
f 23/7/9 21/8/9 20/9/9
f 19/10/10 21/8/10 24/11/10
f 24/11/11 23/7/11 22/12/11
f 21/8/12 19/10/12 20/9/12
f 24/11/13 21/8/13 23/7/13
f 20/9/14 19/10/14 22/12/14
f 22/12/15 23/7/15 20/9/15
f 24/11/16 22/12/16 19/10/16
f 25/13/17 27/14/17 30/15/17
f 29/16/18 30/15/18 27/14/18
f 25/13/19 28/17/19 26/18/19
f 27/14/20 26/18/20 29/16/20
f 25/13/21 26/18/21 27/14/21
f 28/17/22 30/15/22 29/16/22
f 31/19/23 33/20/23 36/21/23
f 30/15/24 28/17/24 25/13/24
f 33/20/25 31/19/25 32/22/25
f 34/23/26 35/24/26 32/22/26
f 35/24/27 33/20/27 32/22/27
f 36/21/28 33/20/28 35/24/28
f 36/21/29 35/24/29 34/23/29
f 36/21/30 34/23/30 31/19/30
f 26/18/31 28/17/31 29/16/31
f 32/22/32 31/19/32 34/23/32
f 37/25/33 38/26/33 39/27/33
f 37/25/34 39/27/34 42/28/34
f 37/25/35 40/29/35 38/26/35
f 39/27/36 38/26/36 41/30/36
f 40/29/37 42/28/37 41/30/37
f 38/26/38 40/29/38 41/30/38
f 42/28/39 40/29/39 37/25/39
f 41/30/40 42/28/40 39/27/40
usemtl Material.003
f 1/31/41 2/32/41 3/33/41
f 1/31/42 3/33/42 5/34/42
f 1/31/43 5/34/43 4/35/43
f 1/31/44 4/35/44 2/32/44
f 3/33/45 2/32/45 6/36/45
f 2/32/46 4/35/46 6/36/46
f 5/34/47 3/33/47 6/36/47
f 4/35/48 5/34/48 6/36/48
f 7/37/41 8/38/41 9/39/41
f 7/37/42 9/39/42 11/40/42
f 7/37/43 11/40/43 10/41/43
f 7/37/44 10/41/44 8/38/44
f 9/39/49 8/38/49 12/42/49
f 8/38/50 10/41/50 12/42/50
f 11/40/51 9/39/51 12/42/51
f 10/41/52 11/40/52 12/42/52
f 13/43/41 14/44/41 15/45/41
f 13/43/42 15/45/42 17/46/42
f 13/43/43 17/46/43 16/47/43
f 13/43/44 16/47/44 14/44/44
f 15/45/45 14/44/45 18/48/45
f 14/44/46 16/47/46 18/48/46
f 17/46/47 15/45/47 18/48/47
f 16/47/48 17/46/48 18/48/48
