# Blender v2.79 (sub 0) OBJ File: ''
# www.blender.org
mtllib test1.mtl
o Cube
v 1.000000 1.016655 0.991103
v 1.000000 1.016655 2.991103
v -1.000000 1.016655 2.991102
v -1.000000 1.016655 0.991102
v 1.000000 3.016655 0.991103
v 0.999999 3.016655 2.991103
v -1.000000 3.016655 2.991102
v -1.000000 3.016655 0.991103
vn 0.0000 -1.0000 -0.0000
vn 0.0000 1.0000 0.0000
vn 1.0000 0.0000 0.0000
vn -0.0000 -0.0000 1.0000
vn -1.0000 -0.0000 -0.0000
vn 0.0000 0.0000 -1.0000
usemtl Material
s off
f 1//1 2//1 3//1 4//1
f 5//2 8//2 7//2 6//2
f 1//3 5//3 6//3 2//3
f 2//4 6//4 7//4 3//4
f 3//5 7//5 8//5 4//5
f 5//6 1//6 4//6 8//6
o Cube.001
v 1.000000 0.993430 -1.020895
v 1.000000 0.993430 0.979105
v -1.000000 0.993430 0.979105
v -1.000000 0.993430 -1.020895
v 1.000000 2.993430 -1.020894
v 0.999999 2.993430 0.979106
v -1.000000 2.993430 0.979105
v -1.000000 2.993430 -1.020895
vn 0.0000 -1.0000 -0.0000
vn 0.0000 1.0000 0.0000
vn 1.0000 0.0000 0.0000
vn -0.0000 -0.0000 1.0000
vn -1.0000 -0.0000 -0.0000
vn 0.0000 0.0000 -1.0000
usemtl Material.001
s off
f 9//7 10//7 11//7 12//7
f 13//8 16//8 15//8 14//8
f 9//9 13//9 14//9 10//9
f 10//10 14//10 15//10 11//10
f 11//11 15//11 16//11 12//11
f 13//12 9//12 12//12 16//12
o Cube.002
v 1.000000 0.993430 -3.011877
v 1.000000 0.993430 -1.011877
v -1.000000 0.993430 -1.011877
v -1.000000 0.993430 -3.011877
v 1.000000 2.993430 -3.011876
v 0.999999 2.993430 -1.011876
v -1.000000 2.993430 -1.011877
v -1.000000 2.993430 -3.011877
vn 0.0000 -1.0000 -0.0000
vn 0.0000 1.0000 0.0000
vn 1.0000 0.0000 0.0000
vn -0.0000 -0.0000 1.0000
vn -1.0000 -0.0000 -0.0000
vn 0.0000 0.0000 -1.0000
usemtl Material.002
s off
f 17//13 18//13 19//13 20//13
f 21//14 24//14 23//14 22//14
f 17//15 21//15 22//15 18//15
f 18//16 22//16 23//16 19//16
f 19//17 23//17 24//17 20//17
f 21//18 17//18 20//18 24//18
o Cube.003
v 2.989000 0.993430 -3.011877
v 2.989000 0.993430 -1.011877
v 0.989000 0.993430 -1.011877
v 0.989000 0.993430 -3.011877
v 2.989000 2.993430 -3.011876
v 2.988999 2.993430 -1.011876
v 0.988999 2.993430 -1.011877
v 0.989000 2.993430 -3.011877
vn 0.0000 -1.0000 0.0000
vn 0.0000 1.0000 0.0000
vn 1.0000 0.0000 0.0000
vn -0.0000 -0.0000 1.0000
vn -1.0000 -0.0000 -0.0000
vn 0.0000 0.0000 -1.0000
usemtl Material.003
s off
f 25//19 26//19 27//19 28//19
f 29//20 32//20 31//20 30//20
f 25//21 29//21 30//21 26//21
f 26//22 30//22 31//22 27//22
f 27//23 31//23 32//23 28//23
f 29//24 25//24 28//24 32//24
o Cube.004
v 2.989000 0.993430 -1.022914
v 2.989000 0.993430 0.977086
v 0.989000 0.993430 0.977086
v 0.989000 0.993430 -1.022914
v 2.989000 2.993430 -1.022913
v 2.988999 2.993430 0.977087
v 0.988999 2.993430 0.977086
v 0.989000 2.993430 -1.022914
vn 0.0000 -1.0000 0.0000
vn 0.0000 1.0000 0.0000
vn 1.0000 -0.0000 0.0000
vn -0.0000 -0.0000 1.0000
vn -1.0000 -0.0000 -0.0000
vn 0.0000 0.0000 -1.0000
usemtl Material.004
s off
f 33//25 34//25 35//25 36//25
f 37//26 40//26 39//26 38//26
f 33//27 37//27 38//27 34//27
f 34//28 38//28 39//28 35//28
f 35//29 39//29 40//29 36//29
f 37//30 33//30 36//30 40//30
o Cube.005
v 2.974173 1.016655 0.988753
v 2.974173 1.016655 2.988753
v 0.974172 1.016655 2.988753
v 0.974173 1.016655 0.988753
v 2.974173 3.016655 0.988753
v 2.974172 3.016655 2.988754
v 0.974172 3.016655 2.988753
v 0.974173 3.016655 0.988753
vn 0.0000 -1.0000 -0.0000
vn 0.0000 1.0000 0.0000
vn 1.0000 0.0000 0.0000
vn -0.0000 -0.0000 1.0000
vn -1.0000 -0.0000 -0.0000
vn 0.0000 0.0000 -1.0000
usemtl Material.005
s off
f 41//31 42//31 43//31 44//31
f 45//32 48//32 47//32 46//32
f 41//33 45//33 46//33 42//33
f 42//34 46//34 47//34 43//34
f 43//35 47//35 48//35 44//35
f 45//36 41//36 44//36 48//36
o Cube.006
v -0.994019 1.016655 0.991103
v -0.994019 1.016655 2.991103
v -2.994020 1.016655 2.991102
v -2.994019 1.016655 0.991102
v -0.994019 3.016655 0.991103
v -0.994020 3.016655 2.991103
v -2.994020 3.016655 2.991102
v -2.994019 3.016655 0.991103
vn 0.0000 -1.0000 -0.0000
vn 0.0000 1.0000 0.0000
vn 1.0000 0.0000 0.0000
vn -0.0000 -0.0000 1.0000
vn -1.0000 -0.0000 -0.0000
vn 0.0000 0.0000 -1.0000
usemtl Material.006
s off
f 49//37 50//37 51//37 52//37
f 53//38 56//38 55//38 54//38
f 49//39 53//39 54//39 50//39
f 50//40 54//40 55//40 51//40
f 51//41 55//41 56//41 52//41
f 53//42 49//42 52//42 56//42
o Cube.007
v -1.004815 0.993430 -1.020895
v -1.004815 0.993430 0.979105
v -3.004815 0.993430 0.979105
v -3.004815 0.993430 -1.020895
v -1.004815 2.993430 -1.020894
v -1.004816 2.993430 0.979106
v -3.004816 2.993430 0.979105
v -3.004815 2.993430 -1.020895
vn 0.0000 -1.0000 0.0000
vn 0.0000 1.0000 0.0000
vn 1.0000 0.0000 0.0000
vn -0.0000 -0.0000 1.0000
vn -1.0000 -0.0000 -0.0000
vn 0.0000 0.0000 -1.0000
usemtl Material.007
s off
f 57//43 58//43 59//43 60//43
f 61//44 64//44 63//44 62//44
f 57//45 61//45 62//45 58//45
f 58//46 62//46 63//46 59//46
f 59//47 63//47 64//47 60//47
f 61//48 57//48 60//48 64//48
o Cube.008
v -0.998813 0.993430 -3.011877
v -0.998813 0.993430 -1.011877
v -2.998813 0.993430 -1.011877
v -2.998813 0.993430 -3.011877
v -0.998813 2.993430 -3.011876
v -0.998814 2.993430 -1.011876
v -2.998814 2.993430 -1.011877
v -2.998813 2.993430 -3.011877
vn 0.0000 -1.0000 0.0000
vn 0.0000 1.0000 0.0000
vn 1.0000 0.0000 0.0000
vn -0.0000 -0.0000 1.0000
vn -1.0000 -0.0000 -0.0000
vn 0.0000 0.0000 -1.0000
usemtl Material.008
s off
f 65//49 66//49 67//49 68//49
f 69//50 72//50 71//50 70//50
f 65//51 69//51 70//51 66//51
f 66//52 70//52 71//52 67//52
f 67//53 71//53 72//53 68//53
f 69//54 65//54 68//54 72//54
o Cube.009
v 1.000000 1.911609 -1.020895
v 1.000000 1.911609 0.979105
v -1.000000 1.911609 0.979105
v -1.000000 1.911609 -1.020895
v 1.000000 3.911609 -1.020894
v 0.999999 3.911609 0.979106
v -1.000000 3.911609 0.979105
v -1.000000 3.911609 -1.020895
vn 0.0000 -1.0000 -0.0000
vn 0.0000 1.0000 0.0000
vn 1.0000 0.0000 0.0000
vn -0.0000 -0.0000 1.0000
vn -1.0000 -0.0000 -0.0000
vn 0.0000 0.0000 -1.0000
usemtl Material.009
s off
f 73//55 74//55 75//55 76//55
f 77//56 80//56 79//56 78//56
f 73//57 77//57 78//57 74//57
f 74//58 78//58 79//58 75//58
f 75//59 79//59 80//59 76//59
f 77//60 73//60 76//60 80//60
o Cube.010
v 2.272643 1.513417 -1.020895
v 2.272643 1.513417 0.979105
v 0.272643 1.513417 0.979105
v 0.272644 1.513417 -1.020895
v 2.272644 3.513417 -1.020894
v 2.272643 3.513417 0.979106
v 0.272643 3.513417 0.979105
v 0.272643 3.513417 -1.020895
vn 0.0000 -1.0000 -0.0000
vn 0.0000 1.0000 0.0000
vn 1.0000 0.0000 0.0000
vn -0.0000 -0.0000 1.0000
vn -1.0000 -0.0000 -0.0000
vn 0.0000 0.0000 -1.0000
usemtl Material.010
s off
f 81//61 82//61 83//61 84//61
f 85//62 88//62 87//62 86//62
f 81//63 85//63 86//63 82//63
f 82//64 86//64 87//64 83//64
f 83//65 87//65 88//65 84//65
f 85//66 81//66 84//66 88//66
o Cube.011
v 1.565921 1.513417 0.113747
v 1.565921 1.513417 2.113747
v -0.434079 1.513417 2.113747
v -0.434078 1.513417 0.113747
v 1.565922 3.513417 0.113747
v 1.565921 3.513417 2.113748
v -0.434079 3.513417 2.113747
v -0.434079 3.513417 0.113747
vt 0.282961 0.443127
vt 0.282961 -0.556873
vt -0.717039 -0.556873
vt -0.717039 0.443127
vt 0.282961 0.443126
vt -0.717039 0.443127
vt -0.717040 -0.556873
vt 0.282960 -0.556874
vt 0.443127 0.256709
vt 0.443126 1.256709
vt -0.556874 1.256709
vt -0.556873 0.256709
vt 0.282961 0.256709
vt 0.282960 1.256709
vt -0.717040 1.256709
vt -0.717039 0.256709
vt 0.443127 0.256709
vt 0.443127 1.256709
vt 1.443127 1.256709
vt 1.443127 0.256709
vt 0.282961 0.256709
vt 0.282961 -0.743291
vt -0.717039 -0.743291
vt -0.717039 0.256709
vn 0.0000 -1.0000 -0.0000
vn 0.0000 1.0000 0.0000
vn 1.0000 0.0000 0.0000
vn -0.0000 -0.0000 1.0000
vn -1.0000 -0.0000 -0.0000
vn 0.0000 0.0000 -1.0000
usemtl Material.011
s off
f 89/1/67 90/2/67 91/3/67 92/4/67
f 93/5/68 96/6/68 95/7/68 94/8/68
f 89/9/69 93/10/69 94/11/69 90/12/69
f 90/13/70 94/14/70 95/15/70 91/16/70
f 91/17/71 95/18/71 96/19/71 92/20/71
f 93/21/72 89/22/72 92/23/72 96/24/72
o Cube.012
v 0.319453 1.513417 0.113747
v 0.319453 1.513417 2.113747
v -1.680547 1.513417 2.113747
v -1.680547 1.513417 0.113747
v 0.319453 3.513417 0.113747
v 0.319452 3.513417 2.113748
v -1.680548 3.513417 2.113747
v -1.680547 3.513417 0.113747
vn 0.0000 -1.0000 -0.0000
vn 0.0000 1.0000 0.0000
vn 1.0000 0.0000 0.0000
vn -0.0000 -0.0000 1.0000
vn -1.0000 -0.0000 -0.0000
vn 0.0000 0.0000 -1.0000
usemtl Material.012
s off
f 97//73 98//73 99//73 100//73
f 101//74 104//74 103//74 102//74
f 97//75 101//75 102//75 98//75
f 98//76 102//76 103//76 99//76
f 99//77 103//77 104//77 100//77
f 101//78 97//78 100//78 104//78
o Cube.013
v -0.286415 1.513417 -0.997300
v -0.286415 1.513417 1.002700
v -2.286415 1.513417 1.002700
v -2.286415 1.513417 -0.997300
v -0.286414 3.513417 -0.997299
v -0.286416 3.513417 1.002701
v -2.286415 3.513417 1.002700
v -2.286415 3.513417 -0.997300
vn 0.0000 -1.0000 0.0000
vn 0.0000 1.0000 0.0000
vn 1.0000 0.0000 0.0000
vn -0.0000 -0.0000 1.0000
vn -1.0000 -0.0000 -0.0000
vn 0.0000 0.0000 -1.0000
usemtl Material.013
s off
f 105//79 106//79 107//79 108//79
f 109//80 112//80 111//80 110//80
f 105//81 109//81 110//81 106//81
f 106//82 110//82 111//82 107//82
f 107//83 111//83 112//83 108//83
f 109//84 105//84 108//84 112//84
o Cube.014
v 0.319453 1.513417 -2.072520
v 0.319453 1.513417 -0.072520
v -1.680547 1.513417 -0.072520
v -1.680547 1.513417 -2.072520
v 0.319453 3.513417 -2.072519
v 0.319452 3.513417 -0.072519
v -1.680548 3.513417 -0.072520
v -1.680547 3.513417 -2.072520
vn 0.0000 -1.0000 -0.0000
vn 0.0000 1.0000 0.0000
vn 1.0000 0.0000 0.0000
vn -0.0000 -0.0000 1.0000
vn -1.0000 -0.0000 -0.0000
vn 0.0000 0.0000 -1.0000
usemtl Material.014
s off
f 113//85 114//85 115//85 116//85
f 117//86 120//86 119//86 118//86
f 113//87 117//87 118//87 114//87
f 114//88 118//88 119//88 115//88
f 115//89 119//89 120//89 116//89
f 117//90 113//90 116//90 120//90
o Cube.015
v 1.496323 1.513417 -2.072520
v 1.496323 1.513417 -0.072520
v -0.503677 1.513417 -0.072520
v -0.503677 1.513417 -2.072520
v 1.496323 3.513417 -2.072519
v 1.496322 3.513417 -0.072519
v -0.503678 3.513417 -0.072520
v -0.503677 3.513417 -2.072520
vn 0.0000 -1.0000 -0.0000
vn 0.0000 1.0000 0.0000
vn 1.0000 0.0000 0.0000
vn -0.0000 -0.0000 1.0000
vn -1.0000 -0.0000 -0.0000
vn 0.0000 0.0000 -1.0000
usemtl Material.015
s off
f 121//91 122//91 123//91 124//91
f 125//92 128//92 127//92 126//92
f 121//93 125//93 126//93 122//93
f 122//94 126//94 127//94 123//94
f 123//95 127//95 128//95 124//95
f 125//96 121//96 124//96 128//96
